<?xml version="1.0" encoding="utf-8"?>
<!-- Generator: Adobe Illustrator 19.0.0, SVG Export Plug-In . SVG Version: 6.00 Build 0)  -->
<svg version="1.1"
	 id="svg2" xmlns:rdf="http://www.w3.org/1999/02/22-rdf-syntax-ns#" xmlns:dc="http://purl.org/dc/elements/1.1/" xmlns:svg="http://www.w3.org/2000/svg" xmlns:cc="http://creativecommons.org/ns#"
	 xmlns="http://www.w3.org/2000/svg" xmlns:xlink="http://www.w3.org/1999/xlink" x="0px" y="0px" viewBox="435 240.8 1481.1 313.2"
	 style="enable-background:new 435 240.8 1481.1 313.2;" xml:space="preserve">
<style type="text/css">
	.st0{fill:#0C0B0A;}
	.st1{fill:#45AFFF;}
	.st2{fill:#100F0D;}
</style>
<g id="g10" transform="matrix(1.3333333,0,0,-1.3333333,0,313.2)">
	<g id="g12" transform="scale(0.1)">
		<path id="path14" class="st0" d="M3297.5-489.4h567.4v-217.9h-164v-559.9h-239.5v559.9h-164V-489.4"/>
		<path id="path16" class="st0" d="M3887.6-489.4h241.6v-260h192v260h240.6v-777.8h-240.6v299.9h-192v-299.9h-241.6V-489.4"/>
		<path id="path18" class="st0" d="M4631.9-489.4h482.2V-676h-240.6v-101.4h212.5v-186.6h-212.5v-116.5h248.1v-186.6h-489.8V-489.4"
			/>
		<path id="path20" class="st1" d="M3262.5-450.1h567.4V-668h-164v-559.9h-239.5V-668h-164V-450.1"/>
		<path id="path22" class="st1" d="M3852.6-450.1h241.6v-260h192v260h240.6v-777.8h-240.6V-928h-192v-299.9h-241.6V-450.1"/>
		<path id="path24" class="st1" d="M4596.9-450.1h482.2v-186.6h-240.6v-101.4h212.5v-186.6h-212.5v-116.5h248.1v-186.6h-489.8
			V-450.1"/>
		<path id="path26" class="st0" d="M7040.6-505h481.6V-693h-238.1v-102.2h206.6v-188.1h-206.6v-305.5h-243.5V-505"/>
		<path id="path28" class="st0" d="M8206.1-967c0-30.4-0.7-54.2-2.2-71.2c-1.5-17-6.3-46.9-14.7-89.7
			c-8.4-42.8-40.6-83.2-96.8-121.2c-56.2-38.1-127.4-57.1-213.6-57.1c-111.6,0-189.4,22.8-233.2,68.5c-43.9,45.7-70.5,85-79.9,118
			c-9.4,33-14.1,83.9-14.1,152.8V-505h243.5v-444.7v-53.3c2.9-21.8,11.7-38.8,26.3-51.1c14.6-12.3,33.5-18.5,56.9-18.5
			c29.9,0,50.3,6.9,61.3,20.7c10.9,13.8,17.5,26.6,19.7,38.6c2.2,12,3.3,33.2,3.3,63.6V-505h243.5L8206.1-967"/>
		<path id="path30" class="st0" d="M8275.6-505h258.8l182.7-316.4c7.2-13.1,22.8-52.6,46.8-118.5l13-33.7l13-35.9
			c-10.2,43.5-17.9,82.6-23.4,117.4c-5.4,34.8-8.2,62-8.2,81.6V-505h242.5v-783.9h-251.1L8554-956.2c-6.5,10.9-16,32.8-28.3,65.8
			c-12.3,33-26.5,73-42.4,120.1c10.9-48.6,19.6-90.8,26.1-126.7c6.5-35.9,9.8-58.9,9.8-69v-322.9h-243.5V-505"/>
		<path id="path32" class="st0" d="M9071.5-505h258.8l182.7-316.4c7.2-13.1,22.8-52.6,46.8-118.5l13-33.7l13-35.9
			c-10.2,43.5-17.9,82.6-23.4,117.4c-5.4,34.8-8.2,62-8.2,81.6V-505h242.5v-783.9h-251.2l-195.7,332.7c-6.5,10.9-16,32.8-28.3,65.8
			c-12.3,33-26.5,73-42.4,120.1c10.9-48.6,19.6-90.8,26.1-126.7c6.5-35.9,9.8-58.9,9.8-69v-322.9h-243.5L9071.5-505"/>
		<path id="path34" class="st0" d="M9867.4-505h486V-693h-242.5v-102.2h214.2v-188.1h-214.2v-117.4h250.1v-188.1h-493.6L9867.4-505"
			/>
		<path id="path36" class="st0" d="M10422.9-505h243.5v-564.3h226.1v-219.6h-469.7V-505"/>
		<path id="path38" class="st0" d="M11466.7-772.4c-42.8,30.4-86.6,45.7-131.6,45.7c-50.7,0-92.8-16.3-126.1-48.9
			c-33.4-32.6-50-73.6-50-122.9c0-50,16.7-91.7,50-125c33.3-33.3,75.4-50,126.1-50c26.8,0,51.5,5.1,73.9,15.2
			c10.9,3.6,19.7,7.6,26.6,12c6.9,4.3,17.6,12.3,32.1,23.9l115.2-170.7c-21.7-19.6-39.7-34.3-53.8-44c-14.1-9.8-40.6-23.8-79.4-41.9
			c-38.8-18.1-89.7-27.2-152.8-27.2c-113.8,0-207.3,38-280.5,114.2c-73.2,76.1-109.8,173.6-109.8,292.5
			c0,117.4,37.1,215.1,111.5,293c74.3,77.9,167.6,116.9,280,116.9c60.9,0,114-9.8,159.3-29.4c45.3-19.6,88.2-47.1,128.8-82.6
			L11466.7-772.4"/>
		<path id="path40" class="st0" d="M11626.5-505h243.5v-564.3h226.2v-219.6h-469.7V-505"/>
		<path id="path42" class="st0" d="M12361.4-897.4c0-47.8,13.9-87.9,41.8-120.1c27.9-32.3,62.9-48.4,104.9-48.4
			c42,0,77.2,15.9,105.5,47.8c28.3,31.9,42.4,72.1,42.4,120.7c0,46.4-14.1,85.9-42.4,118.5c-28.3,32.6-63.4,48.9-105.5,48.9
			c-42,0-77-16.1-104.9-48.4C12375.4-810.6,12361.4-850.3,12361.4-897.4z M12508.2-489.7c116.7,0,212.2-38.2,286.5-114.7
			c74.3-76.5,111.5-174.1,111.5-293c0-119.6-37.2-217.6-111.5-294.1c-74.3-76.5-169.8-114.7-286.5-114.7
			c-116,0-211.3,38.4-286,115.2c-74.7,76.8-112,174.7-112,293.6c0,118.1,37.3,215.6,112,292.5
			C12296.9-528.2,12392.2-489.7,12508.2-489.7"/>
		<path id="path44" class="st0" d="M13615-967c0-30.4-0.7-54.2-2.2-71.2c-1.4-17-6.3-46.9-14.6-89.7c-8.4-42.8-40.6-83.2-96.8-121.2
			c-56.2-38.1-127.4-57.1-213.6-57.1c-111.7,0-189.4,22.8-233.3,68.5c-43.9,45.7-70.5,85-79.9,118c-9.4,33-14.1,83.9-14.1,152.8
			V-505h243.5v-444.7v-53.3c2.9-21.8,11.7-38.8,26.3-51.1c14.6-12.3,33.6-18.5,56.9-18.5c29.9,0,50.4,6.9,61.3,20.7
			c10.9,13.8,17.5,26.6,19.7,38.6c2.2,12,3.3,33.2,3.3,63.6V-505h243.5V-967"/>
		<path id="path46" class="st0" d="M13928.1-1069.2h52.2c42.8,0,77.6,16.3,104.4,48.9c26.8,32.6,40.2,74.6,40.2,126.1
			c0,49.3-14.1,89.9-42.4,121.8c-28.3,31.9-64.9,47.8-109.8,47.8h-44.6L13928.1-1069.2z M13684.6-505h287
			c48.6,0,102.2-5.6,160.9-16.9c58.7-11.3,113.1-50.4,163.1-117.4c50-67.1,75-148.4,75-244.1c0-121.8-35.7-219.8-107.1-294.1
			c-71.4-74.3-165.4-111.4-282.1-111.4h-296.8L13684.6-505"/>
		<path id="path48" class="st1" d="M7010.6-461.7h481.6v-188.1h-238.1V-752h206.6V-940h-206.6v-305.5h-243.5V-461.7"/>
		<path id="path50" class="st1" d="M8176.1-923.7c0-30.5-0.7-54.2-2.2-71.2c-1.5-17-6.4-46.9-14.7-89.7
			c-8.4-42.8-40.6-83.2-96.8-121.2c-56.2-38.1-127.4-57.1-213.6-57.1c-111.6,0-189.4,22.8-233.2,68.5c-43.9,45.7-70.5,85-79.9,118
			c-9.4,33-14.1,83.9-14.1,152.8v462.1h243.5v-444.7v-53.3c2.9-21.8,11.7-38.8,26.3-51.1c14.6-12.3,33.5-18.5,56.9-18.5
			c29.9,0,50.3,6.9,61.3,20.7c10.9,13.8,17.5,26.6,19.7,38.6c2.2,12,3.3,33.2,3.3,63.6v444.7h243.5L8176.1-923.7"/>
		<path id="path52" class="st1" d="M8245.6-461.7h258.8L8687-778.1c7.2-13,22.8-52.6,46.8-118.5l13-33.7l13-35.9
			c-10.2,43.5-17.9,82.6-23.4,117.4c-5.4,34.8-8.2,62-8.2,81.5v305.5h242.5v-783.9h-251.2L8524-912.9c-6.5,10.9-16,32.8-28.3,65.8
			c-12.3,33-26.5,73-42.4,120.1c10.9-48.6,19.6-90.8,26.1-126.7c6.5-35.9,9.8-58.9,9.8-69v-322.9h-243.5L8245.6-461.7"/>
		<path id="path54" class="st1" d="M9041.5-461.7h258.8l182.7-316.4c7.2-13,22.8-52.6,46.8-118.5l13-33.7l13-35.9
			c-10.2,43.5-17.9,82.6-23.4,117.4c-5.4,34.8-8.2,62-8.2,81.5v305.5h242.5v-783.9h-251.2l-195.7,332.7c-6.5,10.9-16,32.8-28.3,65.8
			c-12.3,33-26.5,73-42.4,120.1c10.9-48.6,19.6-90.8,26.1-126.7c6.5-35.9,9.8-58.9,9.8-69v-322.9h-243.5L9041.5-461.7"/>
		<path id="path56" class="st1" d="M9837.3-461.7h486v-188.1h-242.5V-752h214.2V-940h-214.2v-117.4h250.1v-188.1h-493.6V-461.7"/>
		<path id="path58" class="st1" d="M10392.9-461.7h243.5v-564.3h226.1v-219.6h-469.7V-461.7"/>
		<path id="path60" class="st1" d="M11436.6-729.1c-42.8,30.4-86.6,45.7-131.6,45.7c-50.7,0-92.8-16.3-126.1-48.9
			c-33.4-32.6-50-73.6-50-122.9c0-50,16.7-91.7,50-125c33.3-33.3,75.4-50,126.1-50c26.8,0,51.5,5.1,73.9,15.2
			c10.9,3.6,19.7,7.6,26.6,12c6.9,4.4,17.6,12.3,32.1,23.9l115.2-170.7c-21.7-19.6-39.7-34.3-53.8-44c-14.1-9.8-40.6-23.8-79.4-41.9
			c-38.8-18.1-89.7-27.2-152.8-27.2c-113.8,0-207.3,38-280.5,114.2c-73.2,76.1-109.8,173.6-109.8,292.5
			c0,117.4,37.1,215.1,111.5,293c74.3,77.9,167.6,116.9,280,116.9c60.9,0,114-9.8,159.3-29.4c45.3-19.6,88.2-47.1,128.8-82.6
			L11436.6-729.1"/>
		<path id="path62" class="st1" d="M11596.5-461.7h243.5v-564.3h226.2v-219.6h-469.7V-461.7"/>
		<path id="path64" class="st1" d="M12331.4-854.1c0-47.9,13.9-87.9,41.8-120.1c27.9-32.3,62.9-48.4,104.9-48.4
			c42,0,77.2,15.9,105.5,47.8c28.3,31.9,42.4,72.1,42.4,120.7c0,46.4-14.1,85.9-42.4,118.5c-28.3,32.6-63.4,48.9-105.5,48.9
			c-42,0-77-16.1-104.9-48.4C12345.4-767.4,12331.4-807,12331.4-854.1L12331.4-854.1z M12478.2-446.4
			c116.7,0,212.2-38.3,286.5-114.7c74.3-76.5,111.5-174.1,111.5-293c0-119.6-37.2-217.6-111.5-294.1
			c-74.3-76.5-169.8-114.7-286.5-114.7c-116,0-211.3,38.4-286,115.2c-74.7,76.8-112,174.7-112,293.6c0,118.1,37.3,215.6,112,292.5
			C12266.9-484.9,12362.2-446.4,12478.2-446.4"/>
		<path id="path66" class="st1" d="M13585-923.7c0-30.5-0.7-54.2-2.2-71.2c-1.4-17-6.3-46.9-14.6-89.7
			c-8.4-42.8-40.6-83.2-96.8-121.2c-56.2-38.1-127.4-57.1-213.7-57.1c-111.6,0-189.4,22.8-233.2,68.5c-43.9,45.7-70.5,85-79.9,118
			c-9.4,33-14.1,83.9-14.1,152.8v462.1h243.5v-444.7v-53.3c2.9-21.8,11.7-38.8,26.3-51.1c14.6-12.3,33.5-18.5,56.9-18.5
			c29.9,0,50.3,6.9,61.3,20.7c10.9,13.8,17.5,26.6,19.7,38.6c2.2,12,3.3,33.2,3.3,63.6v444.7h243.5V-923.7"/>
		<path id="path68" class="st1" d="M13898.1-1025.9h52.2c42.8,0,77.5,16.3,104.4,48.9c26.8,32.6,40.2,74.6,40.2,126.1
			c0,49.3-14.1,89.9-42.4,121.8c-28.3,31.9-64.9,47.8-109.8,47.8h-44.6L13898.1-1025.9z M13654.6-461.7h287
			c48.6,0,102.2-5.6,160.9-16.8c58.7-11.3,113.1-50.4,163.1-117.4c50-67.1,75-148.4,75-244.1c0-121.8-35.7-219.8-107.1-294.1
			c-71.4-74.3-165.4-111.4-282.1-111.4h-296.8L13654.6-461.7"/>
		<path id="path70" class="st2" d="M5514.1-328.4c127.9-119,694.3-186.8,1109.4-92.2C5913.6-718.1,5273.2-482.6,5514.1-328.4
			L5514.1-328.4z M5756.6-765.7c22.3-84.8,208.2-174,532.4-95.6C5753.6-1082.4,5524.6-862.3,5756.6-765.7z M5440.7,216.9
			c0,107.9,322.5,195.3,720.3,195.3c397.6,0,720-87.4,720-195.3c0-40.3-45-77.7-122.1-108.7c-282.9-55.6-785.4-56.6-785.4,52.1
			c0,82.5,246.5,101.7,441.9,53.6c-261.9,159.2-777.4,91.7-777.4-61.2c0-29.5,14.9-56.1,39.2-80.1
			C5532.4,108.3,5440.7,159.6,5440.7,216.9L5440.7,216.9z M6024.1-160.7c424.6-30.4,1044.9,33.5,1082.5,260c0.2-0.2,0.4-0.5,0.6-0.6
			c4.8,32.4,6.7,108.2-24.7,168.1C7005,415.1,6618.9,543,6152.9,543c-502.8,0-912.7-138.8-941.9-313.9c-3.9-11-6.3-22.4-6.3-34.2
			c0-212.7,126.4-334.2,255.4-447.9c-99.5-31.1-174.7-87.3-174.7-161.5c0-141.6,158.2-247.8,406.4-269
			c-95.9-24.2-166.4-99.1-166.4-191c0-66.8,52.6-134.8,142.8-177c-35.1-331.5,74.6-589.9,357.9-745.5c22.3-12.2,44.4-14.2,42.4,8
			c-40.3,414.9-36.6,486.2,325.5,820.9c242.4,224.1,497.5,513.4,629.6,799.4C6802.9-267.7,6356.6-289.1,6024.1-160.7"/>
		<path id="path72" class="st2" d="M6278.3-1308.4l18-121.6l95.7,77.2l-6.1,40.5l-28.6,38.6L6278.3-1308.4"/>
		<path id="path74" class="st2" d="M5265.7-1472.2l121.6-18.3l-45.9,114l-40.7,6.1l-45.2-16.2L5265.7-1472.2"/>
		<path id="path76" class="st2" d="M6229.6-1638.8l29.8-127.9l129.4,90.7l1.5,72.9l-49.1,40.2h-72.9L6229.6-1638.8"/>
		<path id="path78" class="st2" d="M5604-1286.6l-29.7-127.9l-129.4,90.7l-1.5,72.9l49.1,40.1h72.9L5604-1286.6"/>
		<path id="path80" class="st2" d="M6448.4-1383.4l44.6-191.4l193.5,135.7l2.2,109.1l-73.4,60h-109.1L6448.4-1383.4"/>
		<path id="path82" class="st2" d="M5683.6-1594.2l6.7-165.9l-174.6,71.4l-72.5,148l73.4,60l102.2-41.5L5683.6-1594.2"/>
	</g>
</g>
</svg>
