<?xml version="1.0" encoding="UTF-8" standalone="no"?>
<svg
   xmlns:dc="http://purl.org/dc/elements/1.1/"
   xmlns:cc="http://creativecommons.org/ns#"
   xmlns:rdf="http://www.w3.org/1999/02/22-rdf-syntax-ns#"
   xmlns:svg="http://www.w3.org/2000/svg"
   xmlns="http://www.w3.org/2000/svg"
   viewBox="0 0 1481.08 313.20001"
   height="313.20001"
   width="1481.08"
   xml:space="preserve"
   id="svg2"
   version="1.1"><metadata
     id="metadata8"><rdf:RDF><cc:Work
         rdf:about=""><dc:format>image/svg+xml</dc:format><dc:type
           rdf:resource="http://purl.org/dc/dcmitype/StillImage" /></cc:Work></rdf:RDF></metadata><defs
     id="defs6" /><g
     transform="matrix(1.3333333,0,0,-1.3333333,0,313.2)"
     id="g10"><g
       transform="scale(0.1)"
       id="g12"><path
         id="path14"
         style="fill:#100f0d;fill-opacity:1;fill-rule:nonzero;stroke:none"
         d="M 34.9922,1316.59 H 602.426 V 1098.68 H 438.449 V 538.801 H 198.965 V 1098.68 H 34.9922 v 217.91" /><path
         id="path16"
         style="fill:#100f0d;fill-opacity:1;fill-rule:nonzero;stroke:none"
         d="m 625.074,1316.59 h 241.649 v -259.98 h 192.017 v 259.98 h 240.57 V 538.801 H 1058.74 V 838.699 H 866.723 V 538.801 H 625.074 v 777.789" /><path
         id="path18"
         style="fill:#100f0d;fill-opacity:1;fill-rule:nonzero;stroke:none"
         d="m 1369.42,1316.59 h 482.2 v -186.63 h -240.56 v -101.4 h 212.52 V 841.93 h -212.52 v -116.5 h 248.12 V 538.801 h -489.76 v 777.789" /><path
         id="path20"
         style="fill:#377dc3;fill-opacity:1;fill-rule:nonzero;stroke:none"
         d="M 0,1355.88 H 567.43 V 1137.97 H 403.453 V 578.09 H 163.969 v 559.88 H 0 v 217.91" /><path
         id="path22"
         style="fill:#377dc3;fill-opacity:1;fill-rule:nonzero;stroke:none"
         d="M 590.082,1355.88 H 831.727 V 1095.9 h 192.023 v 259.98 h 240.56 V 578.09 H 1023.75 V 877.988 H 831.727 V 578.09 H 590.082 v 777.79" /><path
         id="path24"
         style="fill:#377dc3;fill-opacity:1;fill-rule:nonzero;stroke:none"
         d="m 1334.42,1355.88 h 482.21 v -186.63 h -240.57 v -101.39 h 212.52 V 881.219 h -212.52 v -116.5 h 248.13 V 578.09 h -489.77 v 777.79" /><path
         id="path26"
         style="fill:#100f0d;fill-opacity:1;fill-rule:nonzero;stroke:none"
         d="m 3778.06,1301.05 h 481.65 V 1112.96 H 4021.6 v -102.2 h 206.58 V 822.672 H 4021.6 V 517.148 h -243.54 v 783.902" /><path
         id="path28"
         style="fill:#100f0d;fill-opacity:1;fill-rule:nonzero;stroke:none"
         d="m 4943.56,838.969 c 0,-30.449 -0.73,-54.199 -2.17,-71.219 -1.46,-17.039 -6.35,-46.93 -14.67,-89.691 -8.35,-42.778 -40.61,-83.18 -96.77,-121.219 -56.18,-38.059 -127.39,-57.078 -213.64,-57.078 -111.63,0 -189.37,22.828 -233.22,68.488 -43.86,45.672 -70.49,84.969 -79.91,117.961 -9.42,32.98 -14.13,83.891 -14.13,152.758 v 462.081 h 243.54 V 856.371 803.102 c 2.92,-21.75 11.67,-38.793 26.27,-51.114 14.57,-12.328 33.54,-18.476 56.9,-18.476 29.9,0 50.34,6.879 61.28,20.66 10.94,13.758 17.5,26.629 19.69,38.59 2.19,11.968 3.3,33.168 3.3,63.609 v 444.679 h 243.53 V 838.969" /><path
         id="path30"
         style="fill:#100f0d;fill-opacity:1;fill-rule:nonzero;stroke:none"
         d="m 5013.13,1301.05 h 258.76 l 182.66,-316.39 c 7.24,-13.051 22.84,-52.558 46.75,-118.512 l 13.05,-33.699 13.05,-35.879 c -10.16,43.489 -17.94,82.629 -23.37,117.418 -5.44,34.793 -8.16,61.981 -8.16,81.551 v 305.511 h 242.45 V 517.148 H 5487.17 L 5291.46,849.84 c -6.52,10.871 -15.95,32.789 -28.27,65.781 -12.33,32.969 -26.46,73.008 -42.4,120.149 10.88,-48.579 19.57,-90.79 26.09,-126.668 6.53,-35.883 9.79,-58.911 9.79,-69.043 V 517.148 h -243.54 v 783.902" /><path
         id="path32"
         style="fill:#100f0d;fill-opacity:1;fill-rule:nonzero;stroke:none"
         d="m 5808.99,1301.05 h 258.76 L 6250.4,984.66 c 7.24,-13.051 22.84,-52.558 46.75,-118.512 l 13.05,-33.699 13.05,-35.879 c -10.16,43.489 -17.94,82.629 -23.37,117.418 -5.44,34.793 -8.16,61.981 -8.16,81.551 v 305.511 h 242.45 V 517.148 h -251.15 l -195.7,332.692 c -6.53,10.871 -15.96,32.789 -28.27,65.781 -12.34,32.969 -26.47,73.008 -42.41,120.149 10.88,-48.579 19.57,-90.79 26.1,-126.668 6.52,-35.883 9.78,-58.911 9.78,-69.043 V 517.148 h -243.53 v 783.902" /><path
         id="path34"
         style="fill:#100f0d;fill-opacity:1;fill-rule:nonzero;stroke:none"
         d="m 6604.85,1301.05 h 485.99 v -188.09 h -242.46 v -102.2 h 214.19 V 822.672 H 6848.38 V 705.238 h 250.07 v -188.09 h -493.6 v 783.902" /><path
         id="path36"
         style="fill:#100f0d;fill-opacity:1;fill-rule:nonzero;stroke:none"
         d="m 7160.4,1301.05 h 243.54 V 736.77 h 226.15 V 517.148 H 7160.4 v 783.902" /><path
         id="path38"
         style="fill:#100f0d;fill-opacity:1;fill-rule:nonzero;stroke:none"
         d="m 8204.15,1033.59 c -42.78,30.45 -86.63,45.66 -131.56,45.66 -50.74,0 -92.78,-16.31 -126.11,-48.92 -33.35,-32.619 -50.02,-73.58 -50.02,-122.861 0,-50.02 16.67,-91.707 50.02,-125.039 33.33,-33.348 75.37,-50.008 126.11,-50.008 26.81,0 51.46,5.058 73.94,15.226 10.87,3.614 19.73,7.602 26.64,11.954 6.87,4.347 17.56,12.308 32.07,23.918 l 115.24,-170.7 c -21.74,-19.57 -39.68,-34.25 -53.82,-44.031 -14.13,-9.789 -40.59,-23.75 -79.36,-41.859 -38.79,-18.102 -89.7,-27.168 -152.76,-27.168 -113.8,0 -207.31,38.039 -280.5,114.16 -73.23,76.098 -109.82,173.578 -109.82,292.457 0,117.421 37.14,215.091 111.45,293.021 74.28,77.9 167.59,116.87 279.96,116.87 60.89,0 113.97,-9.78 159.28,-29.35 45.29,-19.57 88.24,-47.13 128.83,-82.63 l -119.59,-170.7" /><path
         id="path40"
         style="fill:#100f0d;fill-opacity:1;fill-rule:nonzero;stroke:none"
         d="m 8363.98,1301.05 h 243.53 V 736.77 h 226.16 V 517.148 h -469.69 v 783.902" /><path
         id="path42"
         style="fill:#100f0d;fill-opacity:1;fill-rule:nonzero;stroke:none"
         d="m 9098.94,908.551 c 0,-47.84 13.94,-87.903 41.85,-120.129 27.9,-32.274 62.88,-48.391 104.93,-48.391 42.03,0 77.19,15.938 105.45,47.84 28.28,31.891 42.41,72.109 42.41,120.68 0,46.379 -14.13,85.89 -42.41,118.509 -28.26,32.62 -63.42,48.93 -105.45,48.93 -42.05,0 -77.03,-16.13 -104.93,-48.38 -27.91,-32.258 -41.85,-71.95 -41.85,-119.059 z m 146.78,407.719 c 116.69,0 212.17,-38.24 286.48,-114.7 74.29,-76.48 111.45,-174.14 111.45,-293.019 0,-119.602 -37.16,-217.629 -111.45,-294.102 -74.31,-76.469 -169.79,-114.687 -286.48,-114.687 -115.98,0 -211.3,38.398 -285.95,115.238 -74.66,76.82 -111.98,174.672 -111.98,293.551 0,118.139 37.32,215.629 111.98,292.479 74.65,76.82 169.97,115.24 285.95,115.24" /><path
         id="path44"
         style="fill:#100f0d;fill-opacity:1;fill-rule:nonzero;stroke:none"
         d="m 10352.5,838.969 c 0,-30.449 -0.7,-54.199 -2.2,-71.219 -1.4,-17.039 -6.3,-46.93 -14.6,-89.691 -8.4,-42.778 -40.6,-83.18 -96.8,-121.219 -56.2,-38.059 -127.4,-57.078 -213.6,-57.078 -111.67,0 -189.41,22.828 -233.26,68.488 -43.86,45.672 -70.49,84.969 -79.91,117.961 -9.42,32.98 -14.13,83.891 -14.13,152.758 v 462.081 h 243.54 V 856.371 803.102 c 2.92,-21.75 11.67,-38.793 26.27,-51.114 14.57,-12.328 33.59,-18.476 56.89,-18.476 29.9,0 50.4,6.879 61.3,20.66 10.9,13.758 17.5,26.629 19.7,38.59 2.2,11.968 3.3,33.168 3.3,63.609 v 444.679 h 243.5 V 838.969" /><path
         id="path46"
         style="fill:#100f0d;fill-opacity:1;fill-rule:nonzero;stroke:none"
         d="m 10665.6,736.77 h 52.2 c 42.8,0 77.6,16.312 104.4,48.921 26.8,32.618 40.2,74.649 40.2,126.129 0,49.27 -14.1,89.86 -42.4,121.77 -28.3,31.88 -64.9,47.84 -109.8,47.84 h -44.6 z m -243.5,564.28 h 287 c 48.6,0 102.2,-5.63 160.9,-16.85 58.7,-11.25 113.1,-50.39 163.1,-117.42 50,-67.06 75,-148.41 75,-244.089 0,-121.769 -35.7,-219.812 -107.1,-294.101 -71.4,-74.301 -165.4,-111.442 -282.1,-111.442 h -296.8 v 783.902" /><path
         id="path48"
         style="fill:#377dc3;fill-opacity:1;fill-rule:nonzero;stroke:none"
         d="m 3748.06,1344.34 h 481.64 v -188.09 h -238.1 v -102.2 h 206.58 V 865.961 H 3991.6 v -305.52 h -243.54 v 783.899" /><path
         id="path50"
         style="fill:#377dc3;fill-opacity:1;fill-rule:nonzero;stroke:none"
         d="m 4913.56,882.27 c 0,-30.45 -0.73,-54.2 -2.17,-71.231 -1.46,-17.039 -6.36,-46.93 -14.68,-89.687 -8.35,-42.782 -40.6,-83.18 -96.77,-121.223 -56.18,-38.059 -127.39,-57.078 -213.64,-57.078 -111.63,0 -189.36,22.828 -233.21,68.488 -43.87,45.672 -70.5,84.973 -79.91,117.961 -9.43,32.98 -14.13,83.891 -14.13,152.77 v 462.07 h 243.53 V 899.66 846.391 c 2.92,-21.75 11.67,-38.789 26.27,-51.11 14.57,-12.332 33.55,-18.48 56.91,-18.48 29.9,0 50.34,6.879 61.27,20.66 10.94,13.758 17.5,26.629 19.69,38.59 2.2,11.969 3.3,33.168 3.3,63.609 v 444.68 h 243.54 V 882.27" /><path
         id="path52"
         style="fill:#377dc3;fill-opacity:1;fill-rule:nonzero;stroke:none"
         d="m 4983.13,1344.34 h 258.76 l 182.65,-316.39 c 7.24,-13.04 22.84,-52.559 46.75,-118.509 l 13.05,-33.703 13.05,-35.879 c -10.16,43.493 -17.94,82.629 -23.37,117.422 -5.44,34.789 -8.16,61.979 -8.16,81.549 v 305.51 h 242.45 V 560.441 h -251.15 l -195.7,332.688 c -6.53,10.871 -15.96,32.793 -28.27,65.793 -12.34,32.957 -26.47,73.008 -42.41,120.138 10.88,-48.58 19.57,-90.79 26.1,-126.669 6.52,-35.879 9.78,-58.903 9.78,-69.039 V 560.441 h -243.53 v 783.899" /><path
         id="path54"
         style="fill:#377dc3;fill-opacity:1;fill-rule:nonzero;stroke:none"
         d="m 5778.98,1344.34 h 258.76 l 182.65,-316.39 c 7.24,-13.04 22.84,-52.559 46.75,-118.509 l 13.05,-33.703 13.05,-35.879 c -10.16,43.493 -17.94,82.629 -23.37,117.422 -5.44,34.789 -8.16,61.979 -8.16,81.549 v 305.51 h 242.45 V 560.441 h -251.15 l -195.7,332.688 c -6.53,10.871 -15.96,32.793 -28.27,65.793 -12.34,32.957 -26.47,73.008 -42.41,120.138 10.88,-48.58 19.57,-90.79 26.1,-126.669 6.52,-35.879 9.78,-58.903 9.78,-69.039 V 560.441 h -243.53 v 783.899" /><path
         id="path56"
         style="fill:#377dc3;fill-opacity:1;fill-rule:nonzero;stroke:none"
         d="m 6574.84,1344.34 h 485.99 v -188.09 h -242.46 v -102.2 h 214.19 V 865.961 h -214.19 v -117.43 h 250.07 v -188.09 h -493.6 v 783.899" /><path
         id="path58"
         style="fill:#377dc3;fill-opacity:1;fill-rule:nonzero;stroke:none"
         d="m 7130.39,1344.34 h 243.54 V 780.059 h 226.15 V 560.441 h -469.69 v 783.899" /><path
         id="path60"
         style="fill:#377dc3;fill-opacity:1;fill-rule:nonzero;stroke:none"
         d="m 8174.14,1076.88 c -42.78,30.45 -86.63,45.66 -131.56,45.66 -50.74,0 -92.78,-16.31 -126.11,-48.92 -33.35,-32.62 -50.02,-73.58 -50.02,-122.858 0,-50.024 16.67,-91.711 50.02,-125.043 33.33,-33.348 75.37,-50.008 126.11,-50.008 26.81,0 51.46,5.059 73.94,15.23 10.87,3.61 19.73,7.598 26.64,11.95 6.87,4.359 17.56,12.308 32.07,23.929 l 115.24,-170.711 c -21.74,-19.57 -39.68,-34.25 -53.82,-44.031 -14.13,-9.789 -40.59,-23.75 -79.36,-41.859 -38.79,-18.098 -89.7,-27.168 -152.76,-27.168 -113.8,0 -207.31,38.039 -280.5,114.16 -73.23,76.098 -109.82,173.578 -109.82,292.461 0,117.418 37.14,215.088 111.45,293.018 74.28,77.9 167.6,116.88 279.96,116.88 60.89,0 113.97,-9.79 159.28,-29.36 45.29,-19.57 88.24,-47.13 128.83,-82.63 l -119.59,-170.7" /><path
         id="path62"
         style="fill:#377dc3;fill-opacity:1;fill-rule:nonzero;stroke:none"
         d="M 8333.97,1344.34 H 8577.5 V 780.059 h 226.16 V 560.441 h -469.69 v 783.899" /><path
         id="path64"
         style="fill:#377dc3;fill-opacity:1;fill-rule:nonzero;stroke:none"
         d="m 9068.93,951.852 c 0,-47.852 13.94,-87.911 41.85,-120.141 27.9,-32.27 62.88,-48.391 104.93,-48.391 42.03,0 77.19,15.942 105.46,47.84 28.27,31.891 42.4,72.11 42.4,120.692 0,46.378 -14.13,85.888 -42.4,118.508 -28.27,32.61 -63.43,48.92 -105.46,48.92 -42.05,0 -77.03,-16.13 -104.93,-48.38 -27.91,-32.26 -41.85,-71.939 -41.85,-119.048 z m 146.78,407.718 c 116.69,0 212.17,-38.25 286.48,-114.71 74.29,-76.48 111.45,-174.14 111.45,-293.008 0,-119.602 -37.16,-217.641 -111.45,-294.114 -74.31,-76.468 -169.79,-114.687 -286.48,-114.687 -115.98,0 -211.3,38.398 -285.95,115.238 -74.66,76.82 -111.98,174.672 -111.98,293.563 0,118.128 37.32,215.628 111.98,292.468 74.65,76.82 169.97,115.25 285.95,115.25" /><path
         id="path66"
         style="fill:#377dc3;fill-opacity:1;fill-rule:nonzero;stroke:none"
         d="m 10322.5,882.27 c 0,-30.45 -0.7,-54.2 -2.2,-71.231 -1.4,-17.039 -6.3,-46.93 -14.6,-89.687 -8.4,-42.782 -40.6,-83.18 -96.8,-121.223 -56.2,-38.059 -127.4,-57.078 -213.65,-57.078 -111.63,0 -189.37,22.828 -233.22,68.488 -43.86,45.672 -70.49,84.973 -79.91,117.961 -9.42,32.98 -14.13,83.891 -14.13,152.77 v 462.07 h 243.54 V 899.66 846.391 c 2.92,-21.75 11.67,-38.789 26.27,-51.11 14.57,-12.332 33.54,-18.48 56.9,-18.48 29.9,0 50.3,6.879 61.3,20.66 10.9,13.758 17.5,26.629 19.7,38.59 2.2,11.969 3.3,33.168 3.3,63.609 v 444.68 h 243.5 V 882.27" /><path
         id="path68"
         style="fill:#377dc3;fill-opacity:1;fill-rule:nonzero;stroke:none"
         d="m 10635.6,780.059 h 52.2 c 42.8,0 77.5,16.312 104.4,48.921 26.8,32.622 40.2,74.649 40.2,126.129 0,49.281 -14.1,89.871 -42.4,121.771 -28.3,31.88 -64.9,47.84 -109.8,47.84 h -44.6 z m -243.5,564.281 h 287 c 48.6,0 102.2,-5.62 160.9,-16.85 58.7,-11.25 113.1,-50.39 163.1,-117.42 50,-67.06 75,-148.41 75,-244.09 0,-121.769 -35.7,-219.808 -107.1,-294.101 -71.4,-74.301 -165.4,-111.438 -282.1,-111.438 h -296.8 v 783.899" /><path
         id="path70"
         style="fill:#100f0d;fill-opacity:1;fill-rule:nonzero;stroke:none"
         d="m 2251.64,1477.56 c 127.9,-118.97 694.31,-186.82 1109.42,-92.2 -709.93,-297.43 -1350.33,-61.91 -1109.42,92.2 z m 242.41,-437.22 c 22.31,-84.758 208.2,-173.988 532.39,-95.551 -535.37,-221.219 -764.39,-1.117 -532.39,95.551 z m -315.84,982.54 c 0,107.91 322.53,195.28 720.34,195.28 397.63,0 719.96,-87.37 719.96,-195.28 0,-40.34 -44.98,-77.71 -122.12,-108.74 -282.93,-55.59 -785.4,-56.62 -785.4,52.13 0,82.54 246.49,101.69 441.87,53.64 -261.93,159.21 -777.41,91.74 -777.41,-61.16 0,-29.47 14.87,-56.14 39.22,-80.12 -144.81,35.69 -236.46,87 -236.46,144.25 z m 583.34,-377.55 c 424.58,-30.39 1044.9,33.46 1082.46,259.97 0.18,-0.19 0.37,-0.46 0.55,-0.64 4.84,32.43 6.69,108.18 -24.71,168.14 -77.34,148.25 -463.45,276.23 -929.48,276.23 -502.84,0 -912.73,-138.77 -941.91,-313.88 -3.92,-10.97 -6.33,-22.4 -6.33,-34.2 0,-212.67 126.41,-334.15 255.41,-447.92 -99.45,-31.13 -174.73,-87.28 -174.73,-161.54 0,-141.55 158.19,-247.8 406.36,-268.99 -95.92,-24.16 -166.37,-99.07 -166.37,-191.012 0,-66.816 52.6,-134.769 142.76,-176.957 C 2370.43,422.988 2480.11,164.59 2763.41,9 c 22.3,-12.16797 44.43,-14.21875 42.38,7.9883 -40.34,414.9097 -36.62,486.2027 325.5,820.9097 242.41,224.092 497.46,513.442 629.62,799.352 -220.47,-98.91 -666.8,-120.37 -999.36,8.08" /><path
         id="path72"
         style="fill:#100f0d;fill-opacity:1;fill-rule:nonzero;stroke:none"
         d="m 3015.77,497.629 18.03,-121.57 95.73,77.242 -6.12,40.519 -28.64,38.578 -79,-34.769" /><path
         id="path74"
         style="fill:#100f0d;fill-opacity:1;fill-rule:nonzero;stroke:none"
         d="m 2003.21,333.77 121.57,-18.309 -45.91,114.039 -40.72,6.051 -45.17,-16.18 10.23,-85.601" /><path
         id="path76"
         style="fill:#100f0d;fill-opacity:1;fill-rule:nonzero;stroke:none"
         d="m 2967.06,167.211 29.75,-127.8907 129.38,90.7107 1.49,72.867 -49.08,40.153 h -72.86 l -38.68,-75.84" /><path
         id="path78"
         style="fill:#100f0d;fill-opacity:1;fill-rule:nonzero;stroke:none"
         d="m 2341.53,519.371 -29.74,-127.891 -129.38,90.719 -1.49,72.871 49.08,40.149 h 72.87 l 38.66,-75.848" /><path
         id="path80"
         style="fill:#100f0d;fill-opacity:1;fill-rule:nonzero;stroke:none"
         d="m 3185.86,422.621 44.62,-191.371 193.51,135.699 2.23,109.121 -73.43,60.039 h -109.11 l -57.82,-113.488" /><path
         id="path82"
         style="fill:#100f0d;fill-opacity:1;fill-rule:nonzero;stroke:none"
         d="m 2421.1,211.832 6.69,-165.9218 -174.55,71.3788 -72.5,147.973 73.43,60.047 102.23,-41.457 64.7,-72.02" /></g></g></svg>